<?xml version="1.0" standalone="no"?>
<!DOCTYPE svg PUBLIC "-//W3C//DTD SVG 20010904//EN"
 "http://www.w3.org/TR/2001/REC-SVG-20010904/DTD/svg10.dtd">
<svg version="1.0" xmlns="http://www.w3.org/2000/svg"
 width="570.000000pt" height="570.000000pt" viewBox="0 0 570.000000 570.000000"
 preserveAspectRatio="xMidYMid meet">
<metadata>
Created by potrace 1.14, written by Peter Selinger 2001-2017
</metadata>
<g transform="translate(0.000000,570.000000) scale(0.100000,-0.100000)"
fill="#000000" stroke="none">
<path d="M2730 5443 c-1074 -52 -1997 -747 -2341 -1760 -248 -733 -154 -1548
255 -2200 111 -177 205 -293 370 -459 221 -220 400 -351 666 -486 417 -212
918 -309 1380 -268 1190 106 2150 995 2341 2166 118 730 -79 1471 -548 2054
-280 350 -691 641 -1123 798 -310 113 -684 171 -1000 155z m24 -95 c21 -29 20
-31 -10 -67 l-26 -31 26 0 c19 0 26 -5 26 -20 0 -18 -7 -20 -65 -20 -55 0 -65
3 -65 18 0 9 18 30 40 45 49 35 54 62 10 54 -35 -8 -51 11 -25 30 29 20 72 16
89 -9z m156 2 c13 -13 20 -33 20 -60 0 -49 -27 -80 -70 -80 -43 0 -70 31 -70
80 0 49 27 80 70 80 17 0 39 -9 50 -20z m690 -97 c0 -4 -10 -37 -22 -75 -16
-51 -27 -68 -40 -68 -22 0 -22 12 -4 73 12 40 12 47 0 47 -8 0 -14 7 -14 15 0
11 11 15 40 15 22 0 40 -3 40 -7z m-1520 -22 c0 -13 -9 -21 -30 -26 -17 -4
-30 -13 -30 -21 0 -12 4 -12 20 -4 48 26 97 -28 67 -73 -16 -25 -65 -41 -91
-31 -23 9 -8 32 22 36 16 2 28 10 30 21 3 15 -2 17 -36 11 -39 -6 -39 -6 -46
31 -9 43 -10 41 40 59 52 19 54 19 54 -3z m1202 -210 c51 -10 113 -25 138 -32
25 -7 48 -13 52 -13 3 -1 10 -4 14 -8 4 -5 13 -8 21 -8 7 0 30 -7 51 -16 20
-10 42 -17 47 -18 27 -3 113 -41 109 -48 -3 -4 1 -5 8 -3 8 3 22 0 31 -7 16
-12 17 -17 4 -47 -8 -19 -22 -36 -31 -37 -9 -1 -14 2 -11 7 4 5 0 6 -8 3 -8
-3 -20 2 -27 10 -7 9 -16 13 -21 10 -5 -3 -19 1 -31 8 -13 7 -29 11 -35 10 -7
-2 -13 2 -13 8 0 6 -4 8 -10 5 -5 -3 -10 -2 -10 2 0 5 -8 9 -17 9 -10 1 -58
13 -108 28 -100 30 -218 56 -253 56 -12 0 -25 7 -29 16 -5 13 -7 13 -14 2 -6
-9 -9 -9 -9 -1 0 6 4 14 8 17 5 3 8 19 7 36 -2 37 6 38 137 11z m-852 -67 c0
-19 -10 -24 -68 -39 -37 -9 -75 -17 -83 -19 -7 -1 -31 -8 -51 -15 -21 -7 -43
-9 -49 -5 -7 4 -9 3 -5 -4 5 -9 -10 -15 -64 -27 -3 -1 -30 -12 -60 -25 -30
-14 -61 -23 -67 -22 -7 2 -13 -2 -13 -8 0 -6 -4 -8 -10 -5 -5 3 -10 1 -10 -5
0 -6 -4 -9 -9 -6 -5 4 -11 3 -13 -1 -1 -5 -21 -18 -43 -30 l-40 -22 -23 39
c-12 21 -22 41 -22 44 0 6 87 48 96 46 4 -1 10 2 13 7 8 12 97 53 115 53 8 0
18 5 21 10 3 6 12 10 18 10 7 0 6 -4 -3 -10 -9 -6 -10 -10 -3 -10 7 0 16 6 20
13 10 16 171 69 184 61 5 -3 9 0 9 6 0 6 8 10 18 9 9 -1 19 0 22 1 3 1 25 7
50 14 44 11 45 11 57 -14 7 -14 12 -35 13 -46z m1793 6 c15 -8 26 -19 23 -27
-11 -27 -81 -113 -93 -113 -26 0 -24 24 7 67 23 31 29 47 21 52 -12 8 -5 43 8
38 3 -2 19 -9 34 -17z m-871 -80 c161 -40 369 -118 368 -138 -1 -4 -65 -142
-144 -307 -116 -243 -147 -300 -162 -298 -11 0 -64 17 -119 36 -55 19 -133 42
-173 50 -41 9 -76 18 -79 21 -3 3 14 156 38 342 l44 336 55 -6 c30 -4 108 -20
172 -36z m-1902 15 c8 -10 10 -29 6 -56 -6 -40 -6 -40 16 -25 16 11 25 13 35
4 10 -8 2 -19 -39 -49 -45 -34 -53 -37 -61 -23 -6 10 -5 30 2 54 6 20 11 45
11 54 0 23 -31 20 -37 -4 -3 -12 -12 -20 -21 -18 -24 5 -24 22 -2 51 24 30 70
36 90 12z m1054 -315 c32 -173 60 -324 63 -336 4 -18 -3 -22 -54 -33 -79 -18
-207 -62 -272 -95 -29 -15 -55 -25 -57 -23 -9 9 -324 592 -324 599 0 12 144
81 253 122 114 43 319 98 328 88 3 -4 32 -149 63 -322z m1820 309 c32 -25 36
-68 6 -76 -14 -4 -19 -11 -15 -23 7 -21 -19 -50 -44 -50 -10 0 -30 9 -45 21
-33 26 -37 78 -6 86 11 3 20 11 20 18 0 17 28 45 44 45 7 0 25 -9 40 -21z
m-2974 -106 c22 -31 39 -62 37 -67 -8 -25 -34 -13 -62 28 -19 28 -34 41 -40
36 -6 -5 -17 -5 -24 -1 -11 7 -10 14 4 35 10 14 23 26 31 26 7 0 31 -26 54
-57z m3134 -453 c17 -19 30 -38 29 -42 -2 -5 1 -7 5 -5 14 4 74 -72 66 -84 -4
-8 -3 -9 4 -5 7 4 26 -16 49 -51 21 -32 41 -60 46 -61 4 -2 5 -8 1 -13 -3 -5
0 -9 5 -9 6 0 11 -7 11 -15 0 -8 5 -15 10 -15 6 0 10 -6 10 -14 0 -7 7 -19 15
-26 8 -7 13 -16 10 -20 -3 -4 2 -13 10 -20 20 -16 19 -34 -1 -26 -8 3 -13 2
-10 -2 3 -5 -8 -16 -23 -25 -28 -16 -29 -16 -45 8 -9 14 -14 25 -11 25 3 0 -4
10 -15 22 -11 12 -18 28 -15 36 2 7 0 10 -5 7 -6 -3 -10 -1 -10 5 0 6 -7 18
-15 26 -26 27 -100 137 -97 146 1 5 -2 7 -7 3 -9 -5 -35 29 -36 47 0 3 -4 10
-9 15 -5 5 -6 2 -2 -7 5 -8 -5 0 -20 19 -15 19 -43 47 -61 64 -18 16 -30 34
-26 40 3 6 1 7 -4 4 -6 -4 -16 -1 -22 7 -9 11 -4 22 21 50 l33 37 39 -43 c21
-24 52 -59 70 -78z m365 27 c36 -18 35 -31 -3 -58 -20 -13 -35 -31 -33 -39 1
-9 -6 -15 -20 -15 -12 0 -25 -4 -29 -8 -12 -12 -34 26 -22 40 7 9 4 21 -10 40
-10 15 -17 34 -15 41 6 16 100 16 132 -1z m-3594 -30 l36 -33 -54 -57 c-29
-31 -51 -57 -49 -57 4 0 -54 -76 -75 -98 -7 -7 -13 -18 -13 -23 0 -5 -7 -9
-15 -9 -8 0 -12 -6 -9 -13 2 -7 -8 -31 -24 -53 -15 -21 -41 -64 -58 -94 -16
-30 -32 -57 -37 -58 -4 -2 -5 -7 -2 -11 2 -5 -1 -16 -8 -25 -11 -15 -15 -15
-54 4 l-43 20 38 74 c20 41 41 71 46 68 5 -3 6 -1 3 5 -6 9 45 98 75 133 7 8
18 23 24 35 6 11 16 19 23 17 7 -1 10 2 6 8 -3 5 0 19 8 30 16 23 140 170 144
170 1 0 18 -15 38 -33z m3121 -57 c38 -42 95 -110 126 -150 55 -73 171 -251
166 -255 -7 -6 -580 -316 -592 -321 -9 -4 -30 20 -61 68 -26 40 -81 112 -122
161 -74 87 -74 87 -56 110 62 79 449 475 458 469 6 -4 42 -41 81 -82z m-3496
55 c55 -28 66 -86 25 -125 -19 -18 -28 -21 -37 -12 -9 9 -8 16 5 30 9 10 17
27 17 37 0 14 -4 13 -21 -9 -26 -33 -63 -34 -84 -2 -16 25 -12 49 13 79 19 21
44 22 82 2z m844 -436 l90 -86 -43 -49 c-49 -56 -141 -191 -167 -246 -10 -21
-21 -38 -24 -38 -8 0 -611 288 -618 294 -2 3 13 36 33 73 80 145 162 264 263
381 l54 62 161 -152 c88 -84 201 -192 251 -239z m1406 302 c3 -4 12 -6 20 -6
35 2 244 -68 255 -86 7 -11 -22 -69 -35 -69 -14 0 -64 23 -71 33 -3 5 -9 8
-13 8 -23 -3 -36 0 -31 9 3 5 0 7 -8 4 -8 -3 -37 2 -64 11 -27 9 -72 19 -99
23 l-49 7 -2 43 -2 42 47 -6 c26 -3 49 -9 52 -13z m-555 -39 l3 -39 -54 -12
c-29 -7 -59 -9 -65 -5 -8 4 -9 3 -5 -4 4 -7 1 -12 -7 -12 -8 0 -40 -11 -71
-25 -31 -14 -56 -21 -56 -17 0 4 -4 1 -8 -5 -4 -7 -17 -14 -27 -16 -11 -1 -26
-6 -33 -11 -16 -9 -15 -10 -35 30 -15 30 -15 31 11 46 36 21 174 76 209 83 16
3 51 12 78 19 28 8 51 12 53 11 2 -2 5 -21 7 -43z m576 -77 c117 -30 215 -69
212 -83 -2 -6 -31 -71 -66 -144 -35 -73 -132 -278 -217 -455 -119 -251 -157
-323 -172 -323 -13 0 -18 7 -18 26 0 28 117 944 125 982 7 28 20 28 136 -3z
m-461 -491 c80 -430 92 -507 80 -514 -8 -6 -17 -10 -20 -10 -4 0 -104 181
-225 403 -120 221 -231 425 -247 454 l-29 52 48 24 c44 22 199 79 248 90 53
12 45 36 145 -499z m2488 208 c-3 -13 -135 -69 -143 -60 -2 2 -5 12 -7 22 -2
15 8 23 47 36 30 10 49 23 47 30 -2 7 3 17 10 22 16 10 50 -28 46 -50z m-1325
-25 c-3 -6 -1 -7 5 -3 6 3 16 -2 22 -13 6 -12 22 -32 36 -46 14 -14 22 -30 18
-37 -4 -6 -3 -8 3 -5 10 6 93 -113 93 -133 0 -4 -16 -17 -36 -29 -19 -12 -32
-17 -29 -11 3 5 2 10 -3 10 -4 0 -19 19 -32 43 -13 23 -26 44 -29 47 -3 3 -26
32 -51 65 -24 33 -58 74 -75 91 l-31 31 25 32 24 32 33 -32 c18 -18 30 -37 27
-42z m-1993 -12 c20 -22 22 -28 12 -50 -7 -15 -17 -23 -22 -20 -6 4 -9 1 -8
-7 2 -7 -4 -12 -12 -10 -8 2 -12 0 -8 -4 9 -8 -30 -66 -41 -60 -4 3 -8 -5 -8
-16 -1 -12 -6 -24 -10 -27 -5 -3 -24 -36 -43 -72 -21 -42 -39 -65 -47 -62 -7
3 -10 9 -7 14 3 5 -1 6 -9 3 -16 -6 -53 26 -40 35 4 3 15 20 23 36 31 66 93
154 103 148 5 -3 7 -1 4 4 -6 10 70 113 83 113 4 0 17 -11 30 -25z m2023 -193
c26 -38 49 -76 52 -83 3 -10 -134 -89 -446 -258 -409 -221 -452 -242 -466
-228 -18 18 -56 -25 422 481 l270 286 60 -64 c34 -35 82 -95 108 -134z m1331
137 c19 -56 10 -77 -25 -58 -24 12 -29 11 -29 -6 0 -20 -36 -38 -61 -30 -24 8
-52 66 -43 90 10 25 39 14 39 -15 0 -16 7 -26 18 -28 15 -3 17 1 11 24 -7 26
-6 27 24 21 30 -6 31 -5 22 18 -8 22 -3 31 20 34 3 1 14 -22 24 -50z m-4693
-4 c26 -10 45 -12 47 -6 5 14 32 1 32 -15 0 -8 6 -14 14 -14 9 0 12 -7 9 -20
-3 -13 -12 -20 -22 -18 -10 3 -20 -7 -27 -27 -18 -49 -44 -44 -81 18 -21 35
-30 61 -26 75 3 12 6 22 8 22 1 0 22 -7 46 -15z m1809 -380 c162 -153 303
-286 313 -295 19 -17 14 -50 -7 -50 -9 0 -913 426 -925 436 -12 10 116 210
177 277 l26 27 61 -58 c33 -32 193 -184 355 -337z m-1805 225 c39 -14 49 -21
47 -36 -5 -26 -2 -25 -62 -6 -41 13 -54 14 -58 4 -9 -27 -32 -12 -32 21 0 54
-1 53 105 17z m4495 -307 c0 -5 7 -48 16 -98 15 -95 21 -368 8 -482 l-6 -63
-37 0 c-20 0 -40 4 -46 8 -12 9 -19 42 -8 42 12 0 7 394 -6 470 -18 111 -17
118 27 123 20 2 40 4 45 5 4 1 7 -1 7 -5z m-117 -45 c21 -116 29 -262 24 -411
-2 -93 -8 -171 -11 -174 -3 -4 -158 13 -344 37 l-339 44 1 136 c1 74 -3 167
-7 205 l-8 70 323 61 c178 34 330 62 339 63 11 1 19 -10 22 -31z m-4194 -79
c29 -10 32 -14 25 -38 -6 -21 -10 -426 -4 -426 3 0 9 -42 15 -102 4 -39 3 -63
-3 -63 -6 0 -18 -3 -28 -7 -12 -5 -15 -3 -9 6 6 10 3 11 -15 1 -12 -6 -23 -10
-26 -8 -2 2 -11 49 -19 103 -17 104 -22 341 -9 473 7 79 11 82 73 61z m371
-39 c168 -22 320 -42 337 -45 l33 -6 -6 -102 c-4 -56 -1 -147 5 -201 6 -54 10
-100 8 -102 -5 -5 -541 -107 -633 -120 -48 -7 -45 -13 -64 151 -16 147 -10
465 9 465 4 0 144 -18 311 -40z m3118 -25 c2 -16 5 -101 8 -188 l4 -158 -43 3
-42 3 1 55 c0 30 1 73 3 95 2 48 -6 161 -15 194 -5 16 -4 22 4 17 6 -3 14 -1
17 4 4 6 19 10 33 8 22 -2 28 -9 30 -33z m-106 -26 c9 -61 10 -307 1 -312 -6
-3 -1006 127 -1020 132 -2 1 -3 10 -3 21 0 11 1 20 3 20 1 1 225 43 497 94
272 52 500 93 505 92 6 -2 13 -23 17 -47z m-1159 14 c39 -20 89 -74 82 -90 -2
-8 0 -11 5 -8 12 7 21 -28 21 -80 0 -62 -2 -75 -12 -75 -5 0 -9 -8 -9 -19 0
-22 -23 -44 -35 -33 -5 4 -5 2 -2 -4 3 -6 -3 -18 -15 -28 -61 -53 -155 -57
-234 -11 -25 15 -43 29 -41 31 3 3 -6 17 -20 32 -14 15 -22 34 -20 44 3 10 1
18 -4 18 -14 0 -11 77 5 113 46 111 176 162 279 110z m-1403 -35 c0 -4 7 -5
16 -1 15 6 16 -2 9 -78 -4 -46 -7 -88 -7 -94 1 -5 4 -39 7 -75 12 -120 13
-113 -24 -122 -21 -6 -37 -6 -43 0 -11 11 -24 341 -15 366 6 16 57 19 57 4z
m544 -58 c589 -77 536 -67 536 -93 0 -21 -23 -26 -505 -116 -278 -52 -508 -91
-512 -88 -8 9 -17 322 -10 341 4 9 12 16 18 16 7 0 220 -27 473 -60z m3260 39
c18 -14 26 -30 26 -52 0 -44 -13 -63 -29 -43 -7 8 -10 19 -7 25 8 12 -3 41
-15 41 -5 0 -9 -13 -9 -28 0 -34 -16 -52 -46 -52 -51 0 -73 71 -34 110 26 26
80 26 114 -1z m-4871 -59 c20 0 27 -5 27 -20 0 -18 -7 -20 -60 -20 -48 0 -60
-3 -60 -16 0 -9 -7 -14 -17 -12 -13 2 -19 15 -21 42 l-3 39 53 -6 c29 -4 65
-7 81 -7z m17 -110 c0 -18 -7 -20 -55 -20 -40 0 -55 -4 -55 -14 0 -27 -30 -27
-40 0 -20 51 -16 54 70 54 73 0 80 -2 80 -20z m3030 -290 c245 -117 449 -216
454 -220 16 -15 -169 -299 -196 -300 -6 0 -553 514 -692 650 -52 51 -58 61
-46 75 7 9 18 14 24 11 6 -2 211 -100 456 -216z m-850 195 c10 -12 5 -22 -26
-58 -85 -95 -668 -707 -675 -707 -23 0 -227 275 -213 289 7 8 887 489 895 490
4 1 12 -6 19 -14z m129 -85 c4 0 -3 -80 -16 -177 -13 -98 -35 -266 -48 -373
-45 -344 -63 -471 -66 -474 -12 -10 -298 68 -336 92 -18 11 426 944 445 937 8
-3 17 -5 21 -5z m179 -42 c16 -29 49 -89 72 -133 24 -44 122 -224 217 -399
131 -241 171 -321 161 -328 -52 -33 -320 -120 -332 -107 -9 10 -187 992 -182
1005 11 28 35 13 64 -38z m2260 -291 c47 -43 14 -117 -52 -117 -97 0 -121 127
-26 142 33 5 50 -1 78 -25z m-1218 -27 c0 -5 6 -7 14 -4 7 3 21 -2 30 -11 15
-15 14 -20 -11 -63 -15 -26 -31 -48 -35 -50 -4 -2 -8 -8 -8 -14 0 -21 -91
-138 -102 -132 -7 4 -8 2 -4 -5 5 -7 -3 -23 -19 -38 l-26 -27 -24 27 c-32 33
-31 38 5 77 17 18 30 34 30 37 0 13 38 51 45 45 5 -4 6 -2 2 3 -6 11 37 84 70
119 10 11 12 16 5 11 -11 -6 -12 -3 -3 14 12 22 31 29 31 11z m555 -252 c83
-39 151 -72 153 -74 7 -4 -62 -131 -115 -213 -63 -96 -130 -187 -191 -256
l-42 -48 -28 25 c-105 97 -467 442 -469 447 -2 3 25 40 58 81 33 41 85 116
115 167 l54 92 158 -75 c86 -42 225 -107 307 -146z m-2829 170 c9 -17 45 -68
80 -113 35 -46 60 -86 56 -90 -4 -4 -2 -5 3 -3 6 2 23 -9 39 -23 28 -27 28
-49 0 -49 -8 0 -13 -3 -11 -7 3 -5 -1 -13 -8 -20 -10 -9 -16 -8 -29 6 -9 10
-15 20 -14 22 2 2 1 3 -1 2 -5 -3 -57 52 -86 91 -11 14 -26 33 -33 41 -7 8
-10 19 -7 25 4 6 1 9 -7 8 -7 -2 -12 3 -10 10 1 6 -2 12 -7 12 -10 0 -51 65
-51 81 0 6 5 7 10 4 6 -3 10 -2 10 3 0 7 28 26 47 31 1 1 10 -13 19 -31z
m3412 -33 c48 -14 62 -22 62 -36 0 -23 -22 -24 -79 -4 -36 12 -41 12 -41 0 0
-8 -9 -15 -20 -15 -21 0 -25 16 -14 58 4 13 12 21 18 19 7 -3 40 -13 74 -22z
m-4551 -20 c23 -48 6 -88 -36 -83 -16 1 -36 -3 -44 -11 -39 -32 -92 34 -68 86
9 20 17 24 36 21 14 -3 30 1 36 8 22 27 58 17 76 -21z m1080 -57 c33 -51 90
-124 125 -163 l65 -69 -235 -248 c-129 -136 -238 -248 -243 -248 -11 0 -156
164 -221 250 -31 41 -79 112 -107 157 -47 75 -50 84 -34 94 31 18 578 317 584
318 3 1 33 -41 66 -91z m3151 -193 c3 -3 -53 -110 -90 -173 -11 -17 -25 -29
-30 -26 -7 4 -8 2 -4 -4 15 -25 -170 -273 -197 -264 -5 1 -6 -2 -3 -7 4 -5 -5
-22 -18 -38 l-25 -28 -35 34 -36 35 22 23 c11 12 25 20 29 17 5 -3 7 1 4 8 -3
7 20 39 51 72 30 32 50 54 42 50 -7 -5 1 10 18 31 17 22 41 57 53 78 13 20 27
35 31 32 5 -3 12 0 16 6 4 8 3 9 -4 5 -17 -10 -15 2 6 32 9 15 31 53 47 84 16
31 34 54 39 51 5 -4 7 1 3 10 -6 15 0 14 36 -4 23 -12 43 -23 45 -24z m-3783
-156 c28 -44 49 -86 47 -92 -2 -7 -1 -9 3 -5 4 4 32 -25 63 -65 69 -90 171
-207 195 -226 18 -13 17 -15 -14 -47 l-33 -34 -43 42 c-23 23 -39 46 -36 51 3
6 1 7 -5 3 -6 -3 -28 15 -49 41 -21 27 -43 53 -49 58 -32 30 -104 138 -98 148
4 7 4 9 -1 5 -7 -7 -75 81 -75 98 0 3 -9 17 -20 31 -18 23 -30 66 -14 50 4 -3
18 2 31 13 13 10 30 17 36 14 7 -2 35 -41 62 -85z m2402 -50 c-3 -11 -2 -17 3
-14 4 3 13 -2 20 -10 11 -13 8 -20 -4 -12 -2 1 -12 -5 -22 -13 -34 -27 -65
-41 -76 -34 -7 4 -8 3 -4 -4 7 -11 -12 -16 -51 -15 -7 1 -10 -4 -6 -10 4 -6 0
-8 -10 -4 -9 3 -17 1 -19 -4 -5 -15 -167 -54 -169 -41 -8 46 -4 72 10 76 97
28 136 38 137 35 0 -2 8 2 18 10 9 8 19 12 22 9 2 -3 32 9 66 27 64 34 93 36
85 4z m-1097 -19 c42 -21 262 -83 293 -82 11 1 15 -4 10 -11 -4 -6 -7 -23 -7
-37 -1 -24 -3 -25 -55 -23 -30 2 -57 6 -60 10 -3 5 -19 9 -36 10 -29 2 -187
55 -214 72 -11 7 -10 15 4 45 10 20 19 36 22 36 2 0 22 -9 43 -20z m1309 -342
c88 -163 161 -300 161 -306 0 -12 -171 -91 -285 -132 -120 -42 -286 -83 -295
-73 -4 4 -33 147 -65 318 -31 171 -59 320 -62 332 -4 19 1 23 39 32 82 21 233
74 288 101 30 16 55 27 56 27 1 -1 74 -135 163 -299z m-1299 222 c42 -15 122
-38 178 -51 97 -22 102 -24 101 -49 0 -14 -19 -167 -42 -340 l-42 -315 -35 3
c-55 5 -174 31 -268 58 -112 33 -292 103 -292 114 0 5 46 105 101 222 56 117
121 255 145 307 36 76 47 92 62 86 9 -4 51 -19 92 -35z m-1465 -15 c30 -29 32
-54 5 -88 -24 -31 -68 -47 -96 -36 -24 8 -54 46 -54 66 0 21 37 15 43 -7 3
-12 14 -20 26 -20 l21 0 -20 20 c-26 26 -25 55 2 74 31 22 45 20 73 -9z m3874
-18 c8 -11 6 -18 -9 -32 -11 -10 -20 -25 -20 -33 0 -12 5 -10 23 6 28 26 54
28 79 5 26 -23 22 -50 -11 -84 -35 -34 -47 -36 -54 -9 -3 12 0 20 8 20 7 0 18
7 25 15 10 13 11 18 1 28 -10 9 -16 7 -31 -10 -23 -29 -41 -29 -70 2 -23 24
-23 24 -4 51 44 63 44 63 63 41z m-3798 -107 c-2 -3 -23 -19 -48 -37 -26 -18
-40 -34 -33 -38 8 -5 8 -11 -1 -21 -10 -13 -15 -12 -36 7 -12 13 -23 27 -23
33 0 6 28 30 63 52 54 36 63 39 71 25 6 -9 8 -18 7 -21z m3749 -35 c62 -51 66
-57 47 -73 -11 -9 -23 -4 -56 25 -30 25 -45 33 -50 24 -4 -6 -15 -9 -24 -5
-15 5 -15 8 0 40 9 19 19 34 22 34 4 0 31 -20 61 -45z m-866 -412 c3 -8 3 -20
-1 -25 -3 -6 -1 -8 4 -5 6 4 13 0 17 -8 11 -29 -379 -194 -492 -209 -15 -2
-47 -8 -71 -15 -23 -7 -45 -10 -47 -8 -2 2 -6 25 -9 50 -5 50 -7 48 53 51 9 1
19 4 22 8 3 4 21 9 40 11 19 2 48 10 64 16 16 7 36 9 43 7 8 -3 12 -2 9 3 -3
5 16 14 42 21 26 7 64 22 85 32 21 10 42 16 47 13 6 -3 10 -2 10 3 0 9 32 24
65 31 6 2 15 7 21 12 5 4 23 6 40 3 22 -3 25 -2 14 6 -13 8 -13 11 -1 19 18
11 38 4 45 -16z m386 -8 c8 -10 11 -30 7 -56 -5 -40 -5 -40 18 -25 23 15 35
12 35 -10 0 -18 -98 -76 -106 -62 -4 5 -1 35 6 64 15 62 7 80 -21 45 -23 -28
-50 -22 -42 9 11 43 78 66 103 35z m-2770 -10 c16 -19 18 -16 -53 -45 l-59
-23 29 -23 c22 -18 25 -25 16 -35 -13 -13 -24 -7 -83 40 -22 18 -23 22 -10 35
13 12 125 65 141 66 4 0 12 -7 19 -15z m550 -36 c14 -6 38 -17 53 -25 16 -8
35 -14 42 -14 8 0 26 -5 42 -12 15 -6 33 -12 38 -13 6 -2 44 -13 85 -25 81
-25 80 -25 155 -35 28 -4 51 -11 53 -14 1 -4 16 -5 33 -3 31 5 31 4 24 -29
-13 -66 -16 -71 -38 -65 -12 3 -53 10 -91 16 -38 6 -74 14 -80 18 -6 3 -22 8
-36 10 -46 6 -225 64 -232 76 -4 6 -8 8 -8 4 0 -4 -21 2 -47 13 -120 50 -111
41 -87 93 18 37 19 37 94 5z m45 -271 c26 -12 33 -32 14 -44 -6 -3 -16 -1 -22
5 -14 14 -47 15 -47 1 0 -5 8 -10 18 -10 25 0 42 -20 42 -50 0 -33 -17 -50
-50 -50 -71 0 -95 76 -41 131 32 32 47 35 86 17z m1559 -62 c11 -37 22 -55 36
-59 11 -3 20 -9 20 -15 0 -9 -62 -44 -68 -38 -1 2 -12 36 -23 76 -17 60 -19
74 -7 81 22 15 26 11 42 -45z m-1459 25 c3 -5 -3 -32 -14 -58 -17 -45 -18 -50
-3 -59 20 -13 7 -34 -21 -34 -47 0 -51 13 -28 76 12 33 24 65 26 72 5 14 31
16 40 3z m1375 7 c0 -2 -7 -25 -15 -52 -22 -74 -21 -79 20 -72 30 6 35 4 35
-12 0 -14 -12 -21 -51 -30 -28 -7 -55 -12 -60 -12 -24 0 14 166 40 173 22 6
31 7 31 5z m-695 -110 c29 -13 31 -21 11 -37 -10 -8 -16 -9 -21 -1 -10 16 -45
12 -45 -5 0 -8 9 -15 19 -15 26 0 32 -21 13 -42 -14 -17 -13 -18 11 -18 17 0
27 -5 27 -15 0 -12 -13 -15 -60 -15 -64 0 -72 8 -40 38 18 17 19 20 5 32 -21
17 -19 67 3 79 23 14 46 13 77 -1z"/>
<path d="M2835 5310 c-9 -29 4 -60 25 -60 10 0 22 9 25 20 9 29 -4 60 -25 60
-10 0 -22 -9 -25 -20z"/>
<path d="M1815 4801 c-3 -5 -2 -12 3 -15 5 -3 9 1 9 9 0 17 -3 19 -12 6z"/>
<path d="M4282 4856 c1 -10 8 -17 13 -17 15 1 12 24 -3 29 -9 3 -13 -2 -10
-12z"/>
<path d="M4242 4804 c2 -11 11 -20 22 -22 13 -3 17 1 14 14 -2 11 -11 20 -22
22 -13 3 -17 -1 -14 -14z"/>
<path d="M4770 4320 c0 -5 6 -10 14 -10 8 0 18 5 21 10 3 6 -3 10 -14 10 -12
0 -21 -4 -21 -10z"/>
<path d="M815 4290 c-8 -13 3 -30 20 -30 14 0 27 24 18 34 -10 9 -31 7 -38 -4z"/>
<path d="M3889 3693 c-13 -16 -12 -17 4 -4 9 7 17 15 17 17 0 8 -8 3 -21 -13z"/>
<path d="M3846 3682 c-3 -5 1 -9 9 -9 8 0 12 4 9 9 -3 4 -7 8 -9 8 -2 0 -6 -4
-9 -8z"/>
<path d="M522 3630 c9 -13 16 -16 23 -9 7 7 5 13 -5 19 -24 15 -31 11 -18 -10z"/>
<path d="M2815 2962 c-58 -20 -88 -64 -83 -124 6 -79 93 -120 170 -80 20 11
39 17 41 13 2 -3 2 -1 1 6 -2 6 1 27 7 45 23 82 -58 165 -136 140z"/>
<path d="M5232 2933 c5 -26 38 -29 38 -4 0 15 -6 21 -21 21 -14 0 -19 -5 -17
-17z"/>
<path d="M5130 2262 c0 -25 19 -42 47 -42 28 0 40 24 23 45 -18 22 -70 20 -70
-3z"/>
<path d="M1839 1973 c-13 -16 -12 -17 4 -4 9 7 17 15 17 17 0 8 -8 3 -21 -13z"/>
<path d="M540 2110 c0 -11 7 -20 15 -20 8 0 15 9 15 20 0 11 -7 20 -15 20 -8
0 -15 -9 -15 -20z"/>
<path d="M482 2096 c1 -10 8 -17 13 -17 15 1 12 24 -3 29 -9 3 -13 -2 -10 -12z"/>
<path d="M1336 1318 c3 -5 10 -6 15 -3 13 9 11 12 -6 12 -8 0 -12 -4 -9 -9z"/>
<path d="M842 1483 c2 -10 10 -18 18 -18 8 0 16 8 18 18 2 12 -3 17 -18 17
-15 0 -20 -5 -18 -17z"/>
<path d="M1993 544 c-7 -19 11 -39 26 -30 16 10 13 33 -4 40 -9 3 -18 -1 -22
-10z"/>
</g>
</svg>
